<svg width="40" height="40" viewBox="0 0 40 40" fill="none" xmlns="http://www.w3.org/2000/svg">
<path d="M21.6693 35V38.3333H18.3359V35H5.0026C4.56058 35 4.13665 34.8244 3.82409 34.5118C3.51153 34.1993 3.33594 33.7754 3.33594 33.3333V6.66667C3.33594 6.22464 3.51153 5.80072 3.82409 5.48816C4.13665 5.1756 4.56058 5 5.0026 5H15.0026C15.9486 4.99888 16.8839 5.1996 17.7461 5.58875C18.6084 5.9779 19.3776 6.54653 20.0026 7.25667C20.6276 6.54653 21.3968 5.9779 22.2591 5.58875C23.1213 5.1996 24.0566 4.99888 25.0026 5H35.0026C35.4446 5 35.8686 5.1756 36.1811 5.48816C36.4937 5.80072 36.6693 6.22464 36.6693 6.66667V33.3333C36.6693 33.7754 36.4937 34.1993 36.1811 34.5118C35.8686 34.8244 35.4446 35 35.0026 35H21.6693ZM33.3359 31.6667V8.33334H25.0026C24.1185 8.33334 23.2707 8.68453 22.6456 9.30965C22.0205 9.93477 21.6693 10.7826 21.6693 11.6667V31.6667H33.3359ZM18.3359 31.6667V11.6667C18.3359 10.7826 17.9847 9.93477 17.3596 9.30965C16.7345 8.68453 15.8867 8.33334 15.0026 8.33334H6.66927V31.6667H18.3359Z" fill="#3CAA6E"/>
</svg>