<svg width="34" height="34" viewBox="0 0 34 34" fill="none" xmlns="http://www.w3.org/2000/svg" >
<path d="M17 0C7.61115 0 0 7.61114 0 17C0 26.3889 7.61115 34 17 34C26.3888 34 34 26.3889 34 17C34 7.61118 26.3888 0 17 0ZM1.25059 17C1.25059 15.1737 1.5576 13.395 2.16482 11.6998L3.80004 12.8356V25.5973C3.29171 24.8185 2.85359 23.9943 2.48773 23.1298C1.66714 21.1889 1.25059 19.1266 1.25059 17ZM28.1365 28.1366C26.6898 29.5832 25.0054 30.719 23.1301 31.5122C21.1892 32.3332 19.1269 32.7494 17 32.7494C14.8735 32.7494 12.8111 32.3332 10.8703 31.5122C8.9947 30.719 7.31052 29.5832 5.86356 28.1366C5.40731 27.6799 4.98196 27.2 4.58849 26.6977H13.2922L16.7197 24.2163V10.7104L13.2922 8.15812H3.96314C4.51933 7.34002 5.15424 6.57325 5.86356 5.86359C7.31052 4.41659 8.9947 3.28083 10.8703 2.48781C12.8111 1.6668 14.8735 1.25066 17 1.25066C19.1269 1.25066 21.1893 1.6668 23.1301 2.48781C25.0053 3.28083 26.6898 4.41659 28.1365 5.86359C28.8462 6.57321 29.4807 7.34002 30.0369 8.15812H27.5484L26.9894 9.39246L25.3279 8.15812H21.4623L18.0595 10.7104V24.2163L21.4463 26.6977H29.412C29.0185 27.2 28.593 27.6799 28.1365 28.1366ZM7.27506 12.4017H10.3878C11.2587 12.4017 11.9645 13.1074 11.9645 13.9784V20.9579C11.9645 21.8285 11.2587 22.5345 10.3878 22.5345H8.52036V13.3042L7.27506 12.4017ZM30.6154 24.9234V20.1109H26.2102V22.5345H24.3074C23.475 22.5345 22.8004 21.86 22.8004 21.0277V13.306L21.5544 12.4017H26.2102V15.0471H30.2482L31.0514 9.87745C31.2159 10.2018 31.3698 10.5329 31.5122 10.8699C32.3332 12.8107 32.7494 14.8731 32.7494 17C32.7494 19.1266 32.3332 21.1889 31.5122 23.1298C31.2503 23.7491 30.9511 24.3474 30.6154 24.9234Z" fill="white"/>
</svg>
