<svg width="41" height="40" viewBox="0 0 41 40" fill="none" xmlns="http://www.w3.org/2000/svg">
<path d="M33.9691 25.3333L35.9725 26.535C36.0961 26.6089 36.1984 26.7137 36.2694 26.839C36.3404 26.9643 36.3778 27.1059 36.3778 27.25C36.3778 27.394 36.3404 27.5356 36.2694 27.6609C36.1984 27.7862 36.0961 27.891 35.9725 27.965L21.3558 36.735C21.0966 36.8907 20.7999 36.973 20.4975 36.973C20.1951 36.973 19.8984 36.8907 19.6391 36.735L5.02248 27.965C4.89889 27.891 4.79659 27.7862 4.72556 27.6609C4.65452 27.5356 4.61719 27.394 4.61719 27.25C4.61719 27.1059 4.65452 26.9643 4.72556 26.839C4.79659 26.7137 4.89889 26.6089 5.02248 26.535L7.02581 25.3333L20.4975 33.4166L33.9691 25.3333ZM33.9691 17.5L35.9725 18.7016C36.0961 18.7756 36.1984 18.8804 36.2694 19.0057C36.3404 19.131 36.3778 19.2726 36.3778 19.4166C36.3778 19.5607 36.3404 19.7022 36.2694 19.8276C36.1984 19.9529 36.0961 20.0576 35.9725 20.1316L20.4975 29.4166L5.02248 20.1316C4.89889 20.0576 4.79659 19.9529 4.72556 19.8276C4.65452 19.7022 4.61719 19.5607 4.61719 19.4166C4.61719 19.2726 4.65452 19.131 4.72556 19.0057C4.79659 18.8804 4.89889 18.7756 5.02248 18.7016L7.02581 17.5L20.4975 25.5833L33.9691 17.5ZM21.3541 2.18162L35.9725 10.9516C36.0961 11.0256 36.1984 11.1304 36.2694 11.2557C36.3404 11.381 36.3778 11.5226 36.3778 11.6666C36.3778 11.8107 36.3404 11.9522 36.2694 12.0776C36.1984 12.2029 36.0961 12.3076 35.9725 12.3816L20.4975 21.6666L5.02248 12.3816C4.89889 12.3076 4.79659 12.2029 4.72556 12.0776C4.65452 11.9522 4.61719 11.8107 4.61719 11.6666C4.61719 11.5226 4.65452 11.381 4.72556 11.2557C4.79659 11.1304 4.89889 11.0256 5.02248 10.9516L19.6391 2.18162C19.8984 2.02588 20.1951 1.9436 20.4975 1.9436C20.7999 1.9436 21.0966 2.02588 21.3558 2.18162H21.3541ZM20.4975 5.55329L10.3091 11.6666L20.4975 17.78L30.6858 11.6666L20.4975 5.55329Z" fill="#3CAA6E"/>
</svg>