<svg
  width="40"
  height="40"
  viewBox="0 0 40 40"
  fill="none"
  xmlns="http://www.w3.org/2000/svg"
>
<path
    fill-rule="evenodd"
    clip-rule="evenodd"
    d="M36.6693 33.3333V11.6667L33.3359 5H6.66927L3.33594 11.6733V33.3333C3.33594 33.7754 3.51153 34.1993 3.82409 34.5118C4.13665 34.8244 4.56058 35 5.0026 35H35.0026C35.4446 35 35.8686 34.8244 36.1811 34.5118C36.4937 34.1993 36.6693 33.7754 36.6693 33.3333ZM6.66927 15H33.3359V31.6667H6.66927V15ZM8.72927 8.33333H31.2759L32.9426 11.6667H7.06427L8.72927 8.33333ZM16.604 28L20.0029 26.0904L23.4018 28L22.6428 24.1653L25.5029 21.5108L21.6347 21.0503L20.0029 17.5L18.3712 21.0503L14.5029 21.5108L17.363 24.1653L16.604 28Z"
    fill="#3CAA6E"
  />
</svg>
