<svg width="41" height="40" viewBox="0 0 41 40" fill="none" xmlns="http://www.w3.org/2000/svg">
<path d="M3.83594 15.8333V6.66667C3.83594 6.22464 4.01153 5.80072 4.32409 5.48816C4.63665 5.17559 5.06058 5 5.5026 5H35.5026C35.9446 5 36.3686 5.17559 36.6811 5.48816C36.9937 5.80072 37.1693 6.22464 37.1693 6.66667V15.8333C36.0642 15.8333 35.0044 16.2723 34.223 17.0537C33.4416 17.8351 33.0026 18.8949 33.0026 20C33.0026 21.1051 33.4416 22.1649 34.223 22.9463C35.0044 23.7277 36.0642 24.1667 37.1693 24.1667V33.3333C37.1693 33.7754 36.9937 34.1993 36.6811 34.5118C36.3686 34.8244 35.9446 35 35.5026 35H5.5026C5.06058 35 4.63665 34.8244 4.32409 34.5118C4.01153 34.1993 3.83594 33.7754 3.83594 33.3333V24.1667C4.94101 24.1667 6.00081 23.7277 6.78222 22.9463C7.56362 22.1649 8.0026 21.1051 8.0026 20C8.0026 18.8949 7.56362 17.8351 6.78222 17.0537C6.00081 16.2723 4.94101 15.8333 3.83594 15.8333ZM23.8359 8.33333H7.16927V13.28C8.42129 13.9005 9.47506 14.8584 10.2118 16.0458C10.9485 17.2331 11.3389 18.6027 11.3389 20C11.3389 21.3973 10.9485 22.7669 10.2118 23.9542C9.47506 25.1416 8.42129 26.0995 7.16927 26.72V31.6667H23.8359V8.33333ZM27.1693 8.33333V31.6667H33.8359V26.72C32.5839 26.0995 31.5302 25.1416 30.7934 23.9542C30.0567 22.7669 29.6663 21.3973 29.6663 20C29.6663 18.6027 30.0567 17.2331 30.7934 16.0458C31.5302 14.8584 32.5839 13.9005 33.8359 13.28V8.33333H27.1693Z" fill="#3CAA6E"/>
</svg>