<svg width="81" height="41" viewBox="0 0 81 41" fill="none" xmlns="http://www.w3.org/2000/svg">
<path d="M2.68313 19.896C1.20128 19.896 1.28742e-06 18.6927 8.7851e-07 17.2083C5.83042e-07 16.1357 0.636613 15.1658 1.61966 14.7407L7.81606 12.061C8.00301 11.9802 8.06285 11.7439 7.93698 11.5836C7.84806 11.4703 7.69306 11.4331 7.56255 11.4937L2.88159 13.6681C1.53729 14.2926 1.03364e-06 13.3093 8.94986e-07 11.8249C7.8659e-07 10.6645 0.968564 9.73979 2.12565 9.79548L8.69837 10.1119C8.76124 10.1149 8.81387 10.0647 8.81387 10.0016C8.81387 9.94348 8.76889 9.89531 8.71099 9.89144L1.38444 9.40181C0.605365 9.34975 5.01413e-07 8.70154 2.5231e-07 7.91939C-1.31706e-07 6.71363 1.35823 6.01005 2.34048 6.707L4.74576 8.41367C5.06554 8.64057 5.50838 8.56504 5.73517 8.24491C5.9863 7.89044 5.86407 7.39521 5.47697 7.19881L1.32851 5.09404C0.51361 4.68059 2.46592e-07 3.84328 1.01696e-07 2.92824L0 2.28606C-1.56157e-07 1.29991 0.798056 0.500489 1.78251 0.50049C2.34847 0.50049 2.8808 0.769721 3.21683 1.22591L8.70197 8.67248C8.7626 8.7548 8.88 8.76878 8.95821 8.703C9.02845 8.64392 9.04201 8.54089 8.98945 8.4656L5.91787 4.06591C4.86908 2.56363 5.94201 0.500489 7.77206 0.500489C9.17177 0.500489 10.2357 1.76073 10.0033 3.14337L9.46356 6.35366C9.45077 6.42975 9.50932 6.4991 9.58635 6.4991C9.64236 6.4991 9.69147 6.46165 9.70638 6.40758L10.7605 2.58427C11.0999 1.35315 12.2181 0.500488 13.4931 0.500488L16.9683 0.500488C18.2905 0.500488 19.3623 1.57414 19.3623 2.89855C19.3623 3.64148 19.0185 4.34245 18.4315 4.79654L11.2724 10.3347C11.1937 10.3956 11.1713 10.5051 11.2199 10.592C11.2802 10.7001 11.4229 10.7283 11.5197 10.6513L16.2766 6.87174C17.5239 5.88069 19.3623 6.7705 19.3623 8.36526C19.3623 9.35593 18.6048 10.1815 17.6193 10.2648L13.3145 10.6288C13.2216 10.6367 13.1502 10.7145 13.1502 10.8079C13.1502 10.9111 13.2369 10.9931 13.3398 10.9872L16.2563 10.8204C17.9422 10.724 19.3623 12.0675 19.3623 13.7592V18.2221C19.3623 19.1466 18.6141 19.896 17.6913 19.896C17.038 19.896 16.4447 19.5147 16.1724 18.92L14.7521 15.8181C14.5431 15.3618 14.0164 15.1465 13.5484 15.3261C12.9166 15.5686 12.7331 16.3762 13.1979 16.8688L13.7233 17.4255C14.6044 18.3593 13.9436 19.896 12.6608 19.896H11.9913C11.1092 19.896 10.3649 19.2384 10.2547 18.3617L9.44908 11.9545C9.44302 11.9062 9.40915 11.8661 9.36268 11.8522C9.27774 11.8266 9.19465 11.8971 9.20579 11.9852L9.771 16.4576C10.0016 18.2824 8.58184 19.896 6.74566 19.896H2.68313Z" fill="white"/>
<path d="M22.0357 19.896C21.2276 19.896 20.5724 19.2398 20.5724 18.4302C20.5724 17.7713 21.0114 17.1933 21.6454 17.0175L28.7164 15.0573C29.1947 14.9247 29.483 14.4373 29.3693 13.9533C29.1991 13.2286 28.2877 12.9917 27.7871 13.542L26.3182 15.157C26.0247 15.4796 25.6373 15.7014 25.2108 15.7909L23.1391 16.2257C21.8158 16.5035 20.5724 15.4919 20.5724 14.1375V13.9681C20.5724 12.2246 22.6038 11.2737 23.939 12.3921L25.0042 13.2845C25.079 13.3471 25.1862 13.3523 25.2667 13.2972C25.3887 13.2135 25.3938 13.035 25.2768 12.9446L21.7587 10.226C21.0106 9.6479 20.5724 8.75493 20.5724 7.80844C20.5724 6.39137 21.5458 5.16053 22.9228 4.83617L27.5612 3.74366C27.7906 3.68962 27.8957 3.42284 27.765 3.22641C27.6851 3.10642 27.5382 3.05029 27.3988 3.08658L22.9502 4.24521C21.7469 4.5586 20.5724 3.64887 20.5724 2.40347C20.5724 1.35249 21.423 0.500498 22.4721 0.500498L25.1306 0.500498C28.106 0.500497 30.6069 2.73855 30.941 5.70014L31.02 6.39997L30.913 3.79092C30.8393 1.99595 32.2721 0.500497 34.0655 0.500497L36.2063 0.500497C38.2654 0.500497 39.9347 2.20267 39.9347 4.26536C39.9347 6.01048 38.7075 7.53817 37.0001 7.88493L34.2616 8.44111C34.1475 8.46428 34.0655 8.56477 34.0655 8.68139C34.0655 8.84422 34.2211 8.96181 34.3774 8.91716L35.7561 8.52338C36.908 8.19439 37.871 9.44191 37.2632 10.4758L35.2765 13.8559C35.2137 13.9628 35.2906 14.0976 35.4144 14.0976C35.4665 14.0976 35.5154 14.0721 35.5453 14.0294L36.1236 13.2052C37.301 11.5274 39.9347 12.3618 39.9347 14.4127V18.035C39.9347 19.0628 39.1029 19.896 38.0769 19.896C37.5169 19.896 36.9869 19.643 36.6341 19.2075L32.7131 14.3662C32.6362 14.2712 32.488 14.2838 32.4281 14.3904C32.3938 14.4516 32.3997 14.5275 32.4431 14.5826L34.1464 16.7458C35.1511 18.0217 34.2439 19.896 32.6216 19.896H32.3512C31.5782 19.896 30.9137 19.3471 30.7666 18.5869L30.4712 17.0611C30.1632 15.4698 27.8515 15.5902 27.7099 17.205L27.6777 17.5727C27.6496 17.8928 27.8101 18.1999 28.0887 18.3591C28.8203 18.7772 28.5241 19.896 27.6818 19.896H22.0357Z" fill="white"/>
<path d="M19.3651 38.3249C19.3651 39.5265 18.3927 40.5005 17.1932 40.5005H16.0181C15.7043 40.5005 15.3967 40.4125 15.1302 40.2466L12.1807 38.4103C11.5313 38.006 10.7661 38.7229 11.1255 39.3989C11.3908 39.8981 11.0296 40.5005 10.4651 40.5005H6.04956C5.00384 40.5005 4.2061 39.5636 4.371 38.5292L5.02213 34.4446C5.16116 33.5725 4.48859 32.7827 3.60695 32.7827C2.70908 32.7827 2.03234 33.6003 2.19864 34.4841L2.99368 38.7095C3.16874 39.6399 2.45639 40.5005 1.51128 40.5005C0.678156 40.5005 0.00277677 39.8239 0.00277684 38.9894L0.00277723 34.5353C0.00277747 31.8214 2.5359 29.8214 5.17019 30.4554L6.03403 30.6634C6.04686 30.6664 6.06019 30.6667 6.07314 30.6642C6.16798 30.6458 6.17443 30.5123 6.0818 30.4848L0.996661 28.9762C0.407186 28.8013 0.00277778 28.2588 0.00277783 27.643L0.00277823 23.0831C0.00277832 21.9906 0.886913 21.105 1.97755 21.105C2.79309 21.105 3.52474 21.6072 3.81915 22.369L5.03502 25.5154C5.18693 25.9085 5.56445 26.1676 5.98526 26.1676C6.84011 26.1676 7.31497 25.1767 6.78031 24.5085L6.08234 23.6363C5.26659 22.6169 5.9911 21.105 7.29537 21.105H8.71478C10.2099 21.105 11.2838 22.5464 10.8583 23.9822L9.0466 30.0962C8.96205 30.3816 9.17548 30.668 9.47261 30.668C9.67597 30.668 9.85338 30.5298 9.90336 30.3323L11.4723 24.1331C11.923 22.3522 13.5231 21.105 15.3572 21.105H15.7433C17.7435 21.105 19.3651 22.7293 19.3651 24.733V25.8593C19.3651 26.672 18.8684 27.4018 18.1132 27.6986L17.6178 27.8934C17.209 28.0541 17.3273 28.6629 17.7665 28.6582C18.6466 28.6487 19.3651 29.3607 19.3651 30.2424V32.0087C19.3651 34.1642 17.3528 35.7524 15.2607 35.248L11.4751 34.3353V34.6113L17.7323 36.2174C18.6931 36.4641 19.3651 37.3314 19.3651 38.3249Z" fill="white"/>
<path d="M39.9375 38.2585C39.9375 39.4967 38.9354 40.5005 37.6994 40.5005C37.1214 40.5005 36.5659 40.2766 36.1491 39.8756L31.5752 35.4757C31.1844 35.0997 30.5327 35.3275 30.4604 35.8655C30.4279 36.1071 30.5303 36.3471 30.7271 36.4905L31.354 36.9472C32.8901 38.0662 32.0998 40.5005 30.2005 40.5005H29.9857C28.6637 40.5005 27.6941 39.2554 28.0157 37.971L29.3079 32.8111C29.3372 32.6941 29.2488 32.5807 29.1284 32.5807C29.0443 32.5807 28.9708 32.6374 28.9495 32.7189L27.6091 37.829C27.1961 39.4031 25.7756 40.5005 24.1508 40.5005C22.1761 40.5005 20.5752 38.8969 20.5752 36.9187V35.8601C20.5752 34.5151 21.5448 33.3668 22.8688 33.1436L25.3207 32.7303C25.7784 32.6532 26.0494 32.1738 25.88 31.741C25.7368 31.3749 25.3306 31.1875 24.9597 31.3163L22.4422 32.1914C21.5287 32.509 20.5752 31.8294 20.5752 30.8608C20.5752 30.2845 20.9257 29.7664 21.4599 29.5527L29.859 26.1937C30.0178 26.1302 30.1219 25.9762 30.1219 25.805C30.1219 25.5452 29.888 25.3481 29.6325 25.3927L23.71 26.4258C22.0733 26.7114 20.5752 25.4494 20.5752 23.7853C20.5752 22.305 21.7732 21.105 23.2509 21.105L23.5548 21.105C24.0289 21.105 24.4962 21.2183 24.9178 21.4356L33.8125 26.0191C33.8913 26.0597 33.9877 26.0402 34.0446 25.9722C34.1202 25.8819 34.0963 25.7451 33.9946 25.6859L27.6236 21.9765C27.2115 21.7366 27.3814 21.105 27.8581 21.105C27.9363 21.105 28.0132 21.1246 28.0818 21.1622L34.4968 24.6719C35.5787 25.2638 35.8766 26.6841 35.124 27.6622L34.5323 28.4311C34.2055 28.8558 34.2717 29.4632 34.6823 29.8073C35.1993 30.2405 35.9875 30.0459 36.2443 29.4216L36.5733 28.6221C36.7386 28.2203 36.7372 27.7691 36.5694 27.3684L35.3386 24.4284C34.6775 22.8492 35.8354 21.105 37.545 21.105C38.8663 21.105 39.9375 22.178 39.9375 23.5016V29.3018C39.9375 30.7262 39.1744 32.0411 37.9387 32.7458L34.28 34.8325C33.6942 35.1666 33.6141 35.9806 34.1235 36.4228C34.6124 36.8473 35.3707 36.6872 35.647 36.1011L36.0418 35.2638C36.3498 34.6104 37.0403 34.2272 37.7567 34.3122L38.0697 34.3493C39.135 34.4756 39.9375 35.3802 39.9375 36.4548V38.2585Z" fill="white"/>
<path d="M44.8275 9.7711H46.5088V6.44165H48.7203C50.6473 6.44165 51.8889 5.2757 51.8889 3.56564C51.8889 1.82966 50.6473 0.702575 48.7203 0.702575H44.8275V9.7711ZM48.4229 2.15354C49.5092 2.15354 50.13 2.69765 50.13 3.56564C50.13 4.43362 49.4963 5.0166 48.4229 5.0166H46.5088V2.15354H48.4229Z" fill="white"/>
<path d="M52.5419 4.81171L53.9774 5.18741C54.2595 4.60929 54.4616 4.32998 55.1617 4.32998C55.9764 4.32998 56.3386 4.67977 56.3386 5.34048V5.56071C55.1358 5.67731 54.1529 5.92345 53.3899 6.3121C52.6527 6.6878 52.2906 7.28373 52.2906 8.11285C52.2906 9.26585 53.1054 9.96542 54.3598 9.96542C55.3169 9.96542 55.9506 9.44722 56.261 8.64401C56.3127 8.5015 56.4291 8.42377 56.5843 8.42377C56.7912 8.42377 56.8947 8.52741 56.9076 8.73469C56.9593 9.512 57.2827 9.7711 58.2268 9.7711H58.8993V8.52741H58.2914C57.9552 8.52741 57.9034 8.46264 57.9034 8.13876V5.5348C57.9034 3.95429 56.9464 3.12517 55.1617 3.12517C53.5523 3.12517 52.946 3.90081 52.5419 4.81171ZM56.3386 6.59711V7.11532C56.3386 8.22945 55.6661 8.77356 54.8642 8.77356C54.2434 8.77356 53.8943 8.47559 53.8943 7.95739C53.8943 7.12827 54.7866 6.76553 56.3386 6.59711Z" fill="white"/>
<path d="M59.4107 9.7711H60.9885V0.702575H59.4107V9.7711Z" fill="white"/>
<path d="M62.4045 9.7711H63.9823V6.58416C63.9823 5.61253 64.1245 4.44658 65.3273 4.44658C66.1033 4.44658 66.4912 4.91296 66.4912 5.83277V9.7711H68.0432V6.58416C68.0432 5.59958 68.1596 4.44658 69.3882 4.44658C70.1254 4.44658 70.5521 4.88705 70.5521 5.83277V9.7711H72.117V5.56071C72.117 3.99315 71.2117 3.12517 69.9702 3.12517C69.1813 3.12517 68.5217 3.63041 68.1984 4.3818C68.1208 4.55022 68.0044 4.6409 67.8363 4.6409C67.6681 4.6409 67.5388 4.55022 67.4741 4.36885C67.1637 3.57859 66.5688 3.12517 65.7799 3.12517C64.9005 3.12517 64.3573 3.68223 64.0857 4.47249C64.0469 4.58909 63.9693 4.6409 63.8659 4.6409C63.5167 4.6409 63.4262 4.48544 63.5813 4.16157C63.7236 3.8636 63.8012 3.55268 63.8012 3.31949H62.4045V9.7711Z" fill="white"/>
<path d="M46.5088 19.8922V15.2543C46.5088 14.2309 46.3536 13.5054 45.9268 12.5856C45.8363 12.4042 45.8751 12.2487 46.0432 12.1451C46.095 12.1062 46.1596 12.0933 46.2243 12.0933C46.3407 12.0933 46.4183 12.1322 46.4829 12.2358L51.1646 19.8922H53.208V10.8237H51.5267V14.8268C51.5526 16.0187 51.6431 16.4462 52.1087 17.2364C52.2251 17.4308 52.1863 17.5862 52.0053 17.7028C51.9406 17.7417 51.8759 17.7676 51.8113 17.7676C51.7078 17.7676 51.6302 17.7158 51.5655 17.6121L47.4141 10.8237H44.8275V19.8922H46.5088Z" fill="white"/>
<path d="M55.0455 10.8237V19.8922H56.7268V16.2907H60.7877V14.8398H56.7268V12.2747H61.8352V10.8237H55.0455Z" fill="white"/>
<path d="M62.7119 12.2747H65.8546V19.8922H67.5359V12.2747H70.7303V10.8237H62.7119V12.2747Z" fill="white"/>
<path d="M44.0516 27.7413C44.4396 29.2441 45.7716 30.4101 47.9961 30.4101C50.3887 30.4101 51.6043 29.2053 51.6043 27.5988C51.6043 26.0831 50.5051 25.1892 48.6815 24.8912L47.5046 24.684C46.6511 24.5285 46.2243 24.1528 46.2243 23.5569C46.2243 22.8832 46.7416 22.352 47.8538 22.352C49.0178 22.352 49.6644 22.9739 49.936 23.8548L51.5009 23.2459C51.1388 22.0541 49.9877 20.9529 47.9056 20.9529C45.7716 20.9529 44.5042 22.1448 44.5042 23.6346C44.5042 25.2022 45.4354 25.9924 47.1555 26.2774L48.3065 26.4718C49.3928 26.6531 49.8584 27.0677 49.8584 27.7284C49.8584 28.5057 49.2635 29.0109 48.0219 29.0109C46.6769 29.0109 45.9139 28.2336 45.6423 27.1325L44.0516 27.7413Z" fill="white"/>
<path d="M51.8274 23.7642V24.9949H53.2242V28.5705C53.2242 29.6069 53.8062 30.2158 54.8537 30.2158H56.7678V28.9202H55.3969C54.996 28.9202 54.802 28.7259 54.802 28.3243V24.9949H56.5091V23.7642H54.802V21.7432H53.2242V23.7642H51.8274Z" fill="white"/>
<path d="M59.5082 30.4101C60.4911 30.4101 61.1248 29.7882 61.4869 28.8814C61.5257 28.7777 61.6033 28.7259 61.7197 28.7259C62.056 28.7259 62.1594 28.9073 61.9913 29.2053C61.7844 29.568 61.6809 29.9048 61.6809 30.2158H63.1553V23.7642H61.5775V26.7956C61.5775 27.4304 61.474 27.9745 61.2542 28.428C61.0472 28.8684 60.6722 29.0887 60.1161 29.0887C59.3789 29.0887 59.0038 28.6223 59.0038 27.6895V23.7642H57.426V28.0652C57.426 29.5162 58.1632 30.4101 59.5082 30.4101Z" fill="white"/>
<path d="M66.763 30.4101C67.9529 30.4101 68.4572 29.7623 68.8194 29.0498C68.884 28.9332 68.9745 28.8684 69.0909 28.8684C69.4272 28.8684 69.5177 29.0239 69.3496 29.3219C69.1815 29.6328 69.0651 29.9437 69.0651 30.2158H70.5006V21.1472H68.9228V22.5075C68.9228 23.5439 69.078 24.1528 69.3367 24.6321C69.4919 24.9301 69.3884 25.1115 69.0651 25.1115C68.9357 25.1115 68.8452 25.0597 68.8064 24.9431C68.496 24.1269 67.8753 23.5698 66.763 23.5698C65.224 23.5698 64.1247 24.956 64.1247 26.977C64.1247 29.0368 65.224 30.4101 66.763 30.4101ZM65.7543 26.977C65.7543 25.4483 66.375 24.8135 67.3709 24.8135C68.3279 24.8135 69.0004 25.526 69.0004 26.977C69.0004 28.4409 68.3279 29.1664 67.3709 29.1664C66.375 29.1664 65.7543 28.5316 65.7543 26.977Z" fill="white"/>
<path d="M71.8379 22.7407H73.5191V21.1343H71.8379V22.7407ZM71.9025 30.2158H73.4674V23.7642H71.9025V30.2158Z" fill="white"/>
<path d="M74.4057 26.99C74.4057 28.9591 75.7895 30.4101 77.6519 30.4101C79.5142 30.4101 80.898 29.0239 80.898 26.99C80.898 24.9819 79.54 23.5698 77.6519 23.5698C75.7507 23.5698 74.4057 24.9819 74.4057 26.99ZM76.0353 27.0159C76.0353 25.5908 76.669 24.8524 77.6519 24.8524C78.596 24.8524 79.2685 25.5908 79.2685 27.0159C79.2685 28.415 78.6348 29.1275 77.6519 29.1275C76.669 29.1275 76.0353 28.415 76.0353 27.0159Z" fill="white"/>
</svg>